<svg xmlns="http://www.w3.org/2000/svg" viewBox="0 0 123 11" width="246" height="22" role="img" aria-label="TAIWAN TRANSIT GUIDE"><title>TAIWAN TRANSIT GUIDE</title><rect width="123" height="11" rx="1.5" fill="#0C0D0F"/><g transform="translate(.5 .5)"><g fill="rgba(255,176,0,.13)"><circle cx="2" cy="3" r=".4"/><circle cx="3" cy="3" r=".4"/><circle cx="5" cy="3" r=".4"/><circle cx="6" cy="3" r=".4"/><circle cx="2" cy="4" r=".4"/><circle cx="3" cy="4" r=".4"/><circle cx="5" cy="4" r=".4"/><circle cx="6" cy="4" r=".4"/><circle cx="2" cy="5" r=".4"/><circle cx="3" cy="5" r=".4"/><circle cx="5" cy="5" r=".4"/><circle cx="6" cy="5" r=".4"/><circle cx="2" cy="6" r=".4"/><circle cx="3" cy="6" r=".4"/><circle cx="5" cy="6" r=".4"/><circle cx="6" cy="6" r=".4"/><circle cx="2" cy="7" r=".4"/><circle cx="3" cy="7" r=".4"/><circle cx="5" cy="7" r=".4"/><circle cx="6" cy="7" r=".4"/><circle cx="2" cy="8" r=".4"/><circle cx="3" cy="8" r=".4"/><circle cx="5" cy="8" r=".4"/><circle cx="6" cy="8" r=".4"/><circle cx="8" cy="2" r=".4"/><circle cx="12" cy="2" r=".4"/><circle cx="9" cy="3" r=".4"/><circle cx="10" cy="3" r=".4"/><circle cx="11" cy="3" r=".4"/><circle cx="9" cy="4" r=".4"/><circle cx="10" cy="4" r=".4"/><circle cx="11" cy="4" r=".4"/><circle cx="9" cy="6" r=".4"/><circle cx="10" cy="6" r=".4"/><circle cx="11" cy="6" r=".4"/><circle cx="9" cy="7" r=".4"/><circle cx="10" cy="7" r=".4"/><circle cx="11" cy="7" r=".4"/><circle cx="9" cy="8" r=".4"/><circle cx="10" cy="8" r=".4"/><circle cx="11" cy="8" r=".4"/><circle cx="14" cy="3" r=".4"/><circle cx="15" cy="3" r=".4"/><circle cx="17" cy="3" r=".4"/><circle cx="18" cy="3" r=".4"/><circle cx="14" cy="4" r=".4"/><circle cx="15" cy="4" r=".4"/><circle cx="17" cy="4" r=".4"/><circle cx="18" cy="4" r=".4"/><circle cx="14" cy="5" r=".4"/><circle cx="15" cy="5" r=".4"/><circle cx="17" cy="5" r=".4"/><circle cx="18" cy="5" r=".4"/><circle cx="14" cy="6" r=".4"/><circle cx="15" cy="6" r=".4"/><circle cx="17" cy="6" r=".4"/><circle cx="18" cy="6" r=".4"/><circle cx="14" cy="7" r=".4"/><circle cx="15" cy="7" r=".4"/><circle cx="17" cy="7" r=".4"/><circle cx="18" cy="7" r=".4"/><circle cx="21" cy="2" r=".4"/><circle cx="22" cy="2" r=".4"/><circle cx="23" cy="2" r=".4"/><circle cx="21" cy="3" r=".4"/><circle cx="22" cy="3" r=".4"/><circle cx="23" cy="3" r=".4"/><circle cx="21" cy="4" r=".4"/><circle cx="22" cy="4" r=".4"/><circle cx="23" cy="4" r=".4"/><circle cx="21" cy="5" r=".4"/><circle cx="23" cy="5" r=".4"/><circle cx="21" cy="6" r=".4"/><circle cx="23" cy="6" r=".4"/><circle cx="22" cy="7" r=".4"/><circle cx="21" cy="8" r=".4"/><circle cx="22" cy="8" r=".4"/><circle cx="23" cy="8" r=".4"/><circle cx="26" cy="2" r=".4"/><circle cx="30" cy="2" r=".4"/><circle cx="27" cy="3" r=".4"/><circle cx="28" cy="3" r=".4"/><circle cx="29" cy="3" r=".4"/><circle cx="27" cy="4" r=".4"/><circle cx="28" cy="4" r=".4"/><circle cx="29" cy="4" r=".4"/><circle cx="27" cy="6" r=".4"/><circle cx="28" cy="6" r=".4"/><circle cx="29" cy="6" r=".4"/><circle cx="27" cy="7" r=".4"/><circle cx="28" cy="7" r=".4"/><circle cx="29" cy="7" r=".4"/><circle cx="27" cy="8" r=".4"/><circle cx="28" cy="8" r=".4"/><circle cx="29" cy="8" r=".4"/><circle cx="33" cy="2" r=".4"/><circle cx="34" cy="2" r=".4"/><circle cx="35" cy="2" r=".4"/><circle cx="34" cy="3" r=".4"/><circle cx="35" cy="3" r=".4"/><circle cx="33" cy="4" r=".4"/><circle cx="35" cy="4" r=".4"/><circle cx="33" cy="5" r=".4"/><circle cx="34" cy="5" r=".4"/><circle cx="33" cy="6" r=".4"/><circle cx="34" cy="6" r=".4"/><circle cx="35" cy="6" r=".4"/><circle cx="33" cy="7" r=".4"/><circle cx="34" cy="7" r=".4"/><circle cx="35" cy="7" r=".4"/><circle cx="33" cy="8" r=".4"/><circle cx="34" cy="8" r=".4"/><circle cx="35" cy="8" r=".4"/><circle cx="38" cy="2" r=".4"/><circle cx="39" cy="2" r=".4"/><circle cx="40" cy="2" r=".4"/><circle cx="41" cy="2" r=".4"/><circle cx="42" cy="2" r=".4"/><circle cx="38" cy="3" r=".4"/><circle cx="39" cy="3" r=".4"/><circle cx="40" cy="3" r=".4"/><circle cx="41" cy="3" r=".4"/><circle cx="42" cy="3" r=".4"/><circle cx="38" cy="4" r=".4"/><circle cx="39" cy="4" r=".4"/><circle cx="40" cy="4" r=".4"/><circle cx="41" cy="4" r=".4"/><circle cx="42" cy="4" r=".4"/><circle cx="38" cy="5" r=".4"/><circle cx="39" cy="5" r=".4"/><circle cx="40" cy="5" r=".4"/><circle cx="41" cy="5" r=".4"/><circle cx="42" cy="5" r=".4"/><circle cx="38" cy="6" r=".4"/><circle cx="39" cy="6" r=".4"/><circle cx="40" cy="6" r=".4"/><circle cx="41" cy="6" r=".4"/><circle cx="42" cy="6" r=".4"/><circle cx="38" cy="7" r=".4"/><circle cx="39" cy="7" r=".4"/><circle cx="40" cy="7" r=".4"/><circle cx="41" cy="7" r=".4"/><circle cx="42" cy="7" r=".4"/><circle cx="38" cy="8" r=".4"/><circle cx="39" cy="8" r=".4"/><circle cx="40" cy="8" r=".4"/><circle cx="41" cy="8" r=".4"/><circle cx="42" cy="8" r=".4"/><circle cx="44" cy="3" r=".4"/><circle cx="45" cy="3" r=".4"/><circle cx="47" cy="3" r=".4"/><circle cx="48" cy="3" r=".4"/><circle cx="44" cy="4" r=".4"/><circle cx="45" cy="4" r=".4"/><circle cx="47" cy="4" r=".4"/><circle cx="48" cy="4" r=".4"/><circle cx="44" cy="5" r=".4"/><circle cx="45" cy="5" r=".4"/><circle cx="47" cy="5" r=".4"/><circle cx="48" cy="5" r=".4"/><circle cx="44" cy="6" r=".4"/><circle cx="45" cy="6" r=".4"/><circle cx="47" cy="6" r=".4"/><circle cx="48" cy="6" r=".4"/><circle cx="44" cy="7" r=".4"/><circle cx="45" cy="7" r=".4"/><circle cx="47" cy="7" r=".4"/><circle cx="48" cy="7" r=".4"/><circle cx="44" cy="8" r=".4"/><circle cx="45" cy="8" r=".4"/><circle cx="47" cy="8" r=".4"/><circle cx="48" cy="8" r=".4"/><circle cx="54" cy="2" r=".4"/><circle cx="51" cy="3" r=".4"/><circle cx="52" cy="3" r=".4"/><circle cx="53" cy="3" r=".4"/><circle cx="51" cy="4" r=".4"/><circle cx="52" cy="4" r=".4"/><circle cx="53" cy="4" r=".4"/><circle cx="54" cy="5" r=".4"/><circle cx="51" cy="6" r=".4"/><circle cx="53" cy="6" r=".4"/><circle cx="54" cy="6" r=".4"/><circle cx="51" cy="7" r=".4"/><circle cx="52" cy="7" r=".4"/><circle cx="54" cy="7" r=".4"/><circle cx="51" cy="8" r=".4"/><circle cx="52" cy="8" r=".4"/><circle cx="53" cy="8" r=".4"/><circle cx="56" cy="2" r=".4"/><circle cx="60" cy="2" r=".4"/><circle cx="57" cy="3" r=".4"/><circle cx="58" cy="3" r=".4"/><circle cx="59" cy="3" r=".4"/><circle cx="57" cy="4" r=".4"/><circle cx="58" cy="4" r=".4"/><circle cx="59" cy="4" r=".4"/><circle cx="57" cy="6" r=".4"/><circle cx="58" cy="6" r=".4"/><circle cx="59" cy="6" r=".4"/><circle cx="57" cy="7" r=".4"/><circle cx="58" cy="7" r=".4"/><circle cx="59" cy="7" r=".4"/><circle cx="57" cy="8" r=".4"/><circle cx="58" cy="8" r=".4"/><circle cx="59" cy="8" r=".4"/><circle cx="63" cy="2" r=".4"/><circle cx="64" cy="2" r=".4"/><circle cx="65" cy="2" r=".4"/><circle cx="64" cy="3" r=".4"/><circle cx="65" cy="3" r=".4"/><circle cx="63" cy="4" r=".4"/><circle cx="65" cy="4" r=".4"/><circle cx="63" cy="5" r=".4"/><circle cx="64" cy="5" r=".4"/><circle cx="63" cy="6" r=".4"/><circle cx="64" cy="6" r=".4"/><circle cx="65" cy="6" r=".4"/><circle cx="63" cy="7" r=".4"/><circle cx="64" cy="7" r=".4"/><circle cx="65" cy="7" r=".4"/><circle cx="63" cy="8" r=".4"/><circle cx="64" cy="8" r=".4"/><circle cx="65" cy="8" r=".4"/><circle cx="68" cy="2" r=".4"/><circle cx="69" cy="3" r=".4"/><circle cx="70" cy="3" r=".4"/><circle cx="71" cy="3" r=".4"/><circle cx="72" cy="3" r=".4"/><circle cx="69" cy="4" r=".4"/><circle cx="70" cy="4" r=".4"/><circle cx="71" cy="4" r=".4"/><circle cx="72" cy="4" r=".4"/><circle cx="68" cy="5" r=".4"/><circle cx="72" cy="5" r=".4"/><circle cx="68" cy="6" r=".4"/><circle cx="69" cy="6" r=".4"/><circle cx="70" cy="6" r=".4"/><circle cx="71" cy="6" r=".4"/><circle cx="68" cy="7" r=".4"/><circle cx="69" cy="7" r=".4"/><circle cx="70" cy="7" r=".4"/><circle cx="71" cy="7" r=".4"/><circle cx="72" cy="8" r=".4"/><circle cx="74" cy="3" r=".4"/><circle cx="75" cy="3" r=".4"/><circle cx="77" cy="3" r=".4"/><circle cx="78" cy="3" r=".4"/><circle cx="74" cy="4" r=".4"/><circle cx="75" cy="4" r=".4"/><circle cx="77" cy="4" r=".4"/><circle cx="78" cy="4" r=".4"/><circle cx="74" cy="5" r=".4"/><circle cx="75" cy="5" r=".4"/><circle cx="77" cy="5" r=".4"/><circle cx="78" cy="5" r=".4"/><circle cx="74" cy="6" r=".4"/><circle cx="75" cy="6" r=".4"/><circle cx="77" cy="6" r=".4"/><circle cx="78" cy="6" r=".4"/><circle cx="74" cy="7" r=".4"/><circle cx="75" cy="7" r=".4"/><circle cx="77" cy="7" r=".4"/><circle cx="78" cy="7" r=".4"/><circle cx="80" cy="3" r=".4"/><circle cx="81" cy="3" r=".4"/><circle cx="83" cy="3" r=".4"/><circle cx="84" cy="3" r=".4"/><circle cx="80" cy="4" r=".4"/><circle cx="81" cy="4" r=".4"/><circle cx="83" cy="4" r=".4"/><circle cx="84" cy="4" r=".4"/><circle cx="80" cy="5" r=".4"/><circle cx="81" cy="5" r=".4"/><circle cx="83" cy="5" r=".4"/><circle cx="84" cy="5" r=".4"/><circle cx="80" cy="6" r=".4"/><circle cx="81" cy="6" r=".4"/><circle cx="83" cy="6" r=".4"/><circle cx="84" cy="6" r=".4"/><circle cx="80" cy="7" r=".4"/><circle cx="81" cy="7" r=".4"/><circle cx="83" cy="7" r=".4"/><circle cx="84" cy="7" r=".4"/><circle cx="80" cy="8" r=".4"/><circle cx="81" cy="8" r=".4"/><circle cx="83" cy="8" r=".4"/><circle cx="84" cy="8" r=".4"/><circle cx="86" cy="2" r=".4"/><circle cx="87" cy="2" r=".4"/><circle cx="88" cy="2" r=".4"/><circle cx="89" cy="2" r=".4"/><circle cx="90" cy="2" r=".4"/><circle cx="86" cy="3" r=".4"/><circle cx="87" cy="3" r=".4"/><circle cx="88" cy="3" r=".4"/><circle cx="89" cy="3" r=".4"/><circle cx="90" cy="3" r=".4"/><circle cx="86" cy="4" r=".4"/><circle cx="87" cy="4" r=".4"/><circle cx="88" cy="4" r=".4"/><circle cx="89" cy="4" r=".4"/><circle cx="90" cy="4" r=".4"/><circle cx="86" cy="5" r=".4"/><circle cx="87" cy="5" r=".4"/><circle cx="88" cy="5" r=".4"/><circle cx="89" cy="5" r=".4"/><circle cx="90" cy="5" r=".4"/><circle cx="86" cy="6" r=".4"/><circle cx="87" cy="6" r=".4"/><circle cx="88" cy="6" r=".4"/><circle cx="89" cy="6" r=".4"/><circle cx="90" cy="6" r=".4"/><circle cx="86" cy="7" r=".4"/><circle cx="87" cy="7" r=".4"/><circle cx="88" cy="7" r=".4"/><circle cx="89" cy="7" r=".4"/><circle cx="90" cy="7" r=".4"/><circle cx="86" cy="8" r=".4"/><circle cx="87" cy="8" r=".4"/><circle cx="88" cy="8" r=".4"/><circle cx="89" cy="8" r=".4"/><circle cx="90" cy="8" r=".4"/><circle cx="92" cy="2" r=".4"/><circle cx="96" cy="2" r=".4"/><circle cx="93" cy="3" r=".4"/><circle cx="94" cy="3" r=".4"/><circle cx="95" cy="3" r=".4"/><circle cx="93" cy="4" r=".4"/><circle cx="94" cy="4" r=".4"/><circle cx="95" cy="4" r=".4"/><circle cx="96" cy="4" r=".4"/><circle cx="93" cy="5" r=".4"/><circle cx="93" cy="6" r=".4"/><circle cx="94" cy="6" r=".4"/><circle cx="95" cy="6" r=".4"/><circle cx="93" cy="7" r=".4"/><circle cx="94" cy="7" r=".4"/><circle cx="95" cy="7" r=".4"/><circle cx="92" cy="8" r=".4"/><circle cx="99" cy="2" r=".4"/><circle cx="100" cy="2" r=".4"/><circle cx="101" cy="2" r=".4"/><circle cx="99" cy="3" r=".4"/><circle cx="100" cy="3" r=".4"/><circle cx="101" cy="3" r=".4"/><circle cx="99" cy="4" r=".4"/><circle cx="100" cy="4" r=".4"/><circle cx="101" cy="4" r=".4"/><circle cx="99" cy="5" r=".4"/><circle cx="100" cy="5" r=".4"/><circle cx="101" cy="5" r=".4"/><circle cx="99" cy="6" r=".4"/><circle cx="100" cy="6" r=".4"/><circle cx="101" cy="6" r=".4"/><circle cx="99" cy="7" r=".4"/><circle cx="100" cy="7" r=".4"/><circle cx="101" cy="7" r=".4"/><circle cx="98" cy="8" r=".4"/><circle cx="102" cy="8" r=".4"/><circle cx="104" cy="3" r=".4"/><circle cx="105" cy="3" r=".4"/><circle cx="107" cy="3" r=".4"/><circle cx="108" cy="3" r=".4"/><circle cx="104" cy="4" r=".4"/><circle cx="105" cy="4" r=".4"/><circle cx="107" cy="4" r=".4"/><circle cx="108" cy="4" r=".4"/><circle cx="104" cy="5" r=".4"/><circle cx="105" cy="5" r=".4"/><circle cx="107" cy="5" r=".4"/><circle cx="108" cy="5" r=".4"/><circle cx="104" cy="6" r=".4"/><circle cx="105" cy="6" r=".4"/><circle cx="107" cy="6" r=".4"/><circle cx="108" cy="6" r=".4"/><circle cx="104" cy="7" r=".4"/><circle cx="105" cy="7" r=".4"/><circle cx="107" cy="7" r=".4"/><circle cx="108" cy="7" r=".4"/><circle cx="113" cy="2" r=".4"/><circle cx="114" cy="2" r=".4"/><circle cx="111" cy="3" r=".4"/><circle cx="112" cy="3" r=".4"/><circle cx="114" cy="3" r=".4"/><circle cx="111" cy="4" r=".4"/><circle cx="112" cy="4" r=".4"/><circle cx="113" cy="4" r=".4"/><circle cx="111" cy="5" r=".4"/><circle cx="112" cy="5" r=".4"/><circle cx="113" cy="5" r=".4"/><circle cx="111" cy="6" r=".4"/><circle cx="112" cy="6" r=".4"/><circle cx="113" cy="6" r=".4"/><circle cx="111" cy="7" r=".4"/><circle cx="112" cy="7" r=".4"/><circle cx="114" cy="7" r=".4"/><circle cx="113" cy="8" r=".4"/><circle cx="114" cy="8" r=".4"/><circle cx="117" cy="3" r=".4"/><circle cx="118" cy="3" r=".4"/><circle cx="119" cy="3" r=".4"/><circle cx="120" cy="3" r=".4"/><circle cx="117" cy="4" r=".4"/><circle cx="118" cy="4" r=".4"/><circle cx="119" cy="4" r=".4"/><circle cx="120" cy="4" r=".4"/><circle cx="120" cy="5" r=".4"/><circle cx="117" cy="6" r=".4"/><circle cx="118" cy="6" r=".4"/><circle cx="119" cy="6" r=".4"/><circle cx="120" cy="6" r=".4"/><circle cx="117" cy="7" r=".4"/><circle cx="118" cy="7" r=".4"/><circle cx="119" cy="7" r=".4"/><circle cx="120" cy="7" r=".4"/></g><g fill="#FFB000"><circle cx="2" cy="2" r=".4"/><circle cx="3" cy="2" r=".4"/><circle cx="4" cy="2" r=".4"/><circle cx="5" cy="2" r=".4"/><circle cx="6" cy="2" r=".4"/><circle cx="4" cy="3" r=".4"/><circle cx="4" cy="4" r=".4"/><circle cx="4" cy="5" r=".4"/><circle cx="4" cy="6" r=".4"/><circle cx="4" cy="7" r=".4"/><circle cx="4" cy="8" r=".4"/><circle cx="9" cy="2" r=".4"/><circle cx="10" cy="2" r=".4"/><circle cx="11" cy="2" r=".4"/><circle cx="8" cy="3" r=".4"/><circle cx="12" cy="3" r=".4"/><circle cx="8" cy="4" r=".4"/><circle cx="12" cy="4" r=".4"/><circle cx="8" cy="5" r=".4"/><circle cx="9" cy="5" r=".4"/><circle cx="10" cy="5" r=".4"/><circle cx="11" cy="5" r=".4"/><circle cx="12" cy="5" r=".4"/><circle cx="8" cy="6" r=".4"/><circle cx="12" cy="6" r=".4"/><circle cx="8" cy="7" r=".4"/><circle cx="12" cy="7" r=".4"/><circle cx="8" cy="8" r=".4"/><circle cx="12" cy="8" r=".4"/><circle cx="14" cy="2" r=".4"/><circle cx="15" cy="2" r=".4"/><circle cx="16" cy="2" r=".4"/><circle cx="17" cy="2" r=".4"/><circle cx="18" cy="2" r=".4"/><circle cx="16" cy="3" r=".4"/><circle cx="16" cy="4" r=".4"/><circle cx="16" cy="5" r=".4"/><circle cx="16" cy="6" r=".4"/><circle cx="16" cy="7" r=".4"/><circle cx="14" cy="8" r=".4"/><circle cx="15" cy="8" r=".4"/><circle cx="16" cy="8" r=".4"/><circle cx="17" cy="8" r=".4"/><circle cx="18" cy="8" r=".4"/><circle cx="20" cy="2" r=".4"/><circle cx="24" cy="2" r=".4"/><circle cx="20" cy="3" r=".4"/><circle cx="24" cy="3" r=".4"/><circle cx="20" cy="4" r=".4"/><circle cx="24" cy="4" r=".4"/><circle cx="20" cy="5" r=".4"/><circle cx="22" cy="5" r=".4"/><circle cx="24" cy="5" r=".4"/><circle cx="20" cy="6" r=".4"/><circle cx="22" cy="6" r=".4"/><circle cx="24" cy="6" r=".4"/><circle cx="20" cy="7" r=".4"/><circle cx="21" cy="7" r=".4"/><circle cx="23" cy="7" r=".4"/><circle cx="24" cy="7" r=".4"/><circle cx="20" cy="8" r=".4"/><circle cx="24" cy="8" r=".4"/><circle cx="27" cy="2" r=".4"/><circle cx="28" cy="2" r=".4"/><circle cx="29" cy="2" r=".4"/><circle cx="26" cy="3" r=".4"/><circle cx="30" cy="3" r=".4"/><circle cx="26" cy="4" r=".4"/><circle cx="30" cy="4" r=".4"/><circle cx="26" cy="5" r=".4"/><circle cx="27" cy="5" r=".4"/><circle cx="28" cy="5" r=".4"/><circle cx="29" cy="5" r=".4"/><circle cx="30" cy="5" r=".4"/><circle cx="26" cy="6" r=".4"/><circle cx="30" cy="6" r=".4"/><circle cx="26" cy="7" r=".4"/><circle cx="30" cy="7" r=".4"/><circle cx="26" cy="8" r=".4"/><circle cx="30" cy="8" r=".4"/><circle cx="32" cy="2" r=".4"/><circle cx="36" cy="2" r=".4"/><circle cx="32" cy="3" r=".4"/><circle cx="33" cy="3" r=".4"/><circle cx="36" cy="3" r=".4"/><circle cx="32" cy="4" r=".4"/><circle cx="34" cy="4" r=".4"/><circle cx="36" cy="4" r=".4"/><circle cx="32" cy="5" r=".4"/><circle cx="35" cy="5" r=".4"/><circle cx="36" cy="5" r=".4"/><circle cx="32" cy="6" r=".4"/><circle cx="36" cy="6" r=".4"/><circle cx="32" cy="7" r=".4"/><circle cx="36" cy="7" r=".4"/><circle cx="32" cy="8" r=".4"/><circle cx="36" cy="8" r=".4"/><circle cx="44" cy="2" r=".4"/><circle cx="45" cy="2" r=".4"/><circle cx="46" cy="2" r=".4"/><circle cx="47" cy="2" r=".4"/><circle cx="48" cy="2" r=".4"/><circle cx="46" cy="3" r=".4"/><circle cx="46" cy="4" r=".4"/><circle cx="46" cy="5" r=".4"/><circle cx="46" cy="6" r=".4"/><circle cx="46" cy="7" r=".4"/><circle cx="46" cy="8" r=".4"/><circle cx="50" cy="2" r=".4"/><circle cx="51" cy="2" r=".4"/><circle cx="52" cy="2" r=".4"/><circle cx="53" cy="2" r=".4"/><circle cx="50" cy="3" r=".4"/><circle cx="54" cy="3" r=".4"/><circle cx="50" cy="4" r=".4"/><circle cx="54" cy="4" r=".4"/><circle cx="50" cy="5" r=".4"/><circle cx="51" cy="5" r=".4"/><circle cx="52" cy="5" r=".4"/><circle cx="53" cy="5" r=".4"/><circle cx="50" cy="6" r=".4"/><circle cx="52" cy="6" r=".4"/><circle cx="50" cy="7" r=".4"/><circle cx="53" cy="7" r=".4"/><circle cx="50" cy="8" r=".4"/><circle cx="54" cy="8" r=".4"/><circle cx="57" cy="2" r=".4"/><circle cx="58" cy="2" r=".4"/><circle cx="59" cy="2" r=".4"/><circle cx="56" cy="3" r=".4"/><circle cx="60" cy="3" r=".4"/><circle cx="56" cy="4" r=".4"/><circle cx="60" cy="4" r=".4"/><circle cx="56" cy="5" r=".4"/><circle cx="57" cy="5" r=".4"/><circle cx="58" cy="5" r=".4"/><circle cx="59" cy="5" r=".4"/><circle cx="60" cy="5" r=".4"/><circle cx="56" cy="6" r=".4"/><circle cx="60" cy="6" r=".4"/><circle cx="56" cy="7" r=".4"/><circle cx="60" cy="7" r=".4"/><circle cx="56" cy="8" r=".4"/><circle cx="60" cy="8" r=".4"/><circle cx="62" cy="2" r=".4"/><circle cx="66" cy="2" r=".4"/><circle cx="62" cy="3" r=".4"/><circle cx="63" cy="3" r=".4"/><circle cx="66" cy="3" r=".4"/><circle cx="62" cy="4" r=".4"/><circle cx="64" cy="4" r=".4"/><circle cx="66" cy="4" r=".4"/><circle cx="62" cy="5" r=".4"/><circle cx="65" cy="5" r=".4"/><circle cx="66" cy="5" r=".4"/><circle cx="62" cy="6" r=".4"/><circle cx="66" cy="6" r=".4"/><circle cx="62" cy="7" r=".4"/><circle cx="66" cy="7" r=".4"/><circle cx="62" cy="8" r=".4"/><circle cx="66" cy="8" r=".4"/><circle cx="69" cy="2" r=".4"/><circle cx="70" cy="2" r=".4"/><circle cx="71" cy="2" r=".4"/><circle cx="72" cy="2" r=".4"/><circle cx="68" cy="3" r=".4"/><circle cx="68" cy="4" r=".4"/><circle cx="69" cy="5" r=".4"/><circle cx="70" cy="5" r=".4"/><circle cx="71" cy="5" r=".4"/><circle cx="72" cy="6" r=".4"/><circle cx="72" cy="7" r=".4"/><circle cx="68" cy="8" r=".4"/><circle cx="69" cy="8" r=".4"/><circle cx="70" cy="8" r=".4"/><circle cx="71" cy="8" r=".4"/><circle cx="74" cy="2" r=".4"/><circle cx="75" cy="2" r=".4"/><circle cx="76" cy="2" r=".4"/><circle cx="77" cy="2" r=".4"/><circle cx="78" cy="2" r=".4"/><circle cx="76" cy="3" r=".4"/><circle cx="76" cy="4" r=".4"/><circle cx="76" cy="5" r=".4"/><circle cx="76" cy="6" r=".4"/><circle cx="76" cy="7" r=".4"/><circle cx="74" cy="8" r=".4"/><circle cx="75" cy="8" r=".4"/><circle cx="76" cy="8" r=".4"/><circle cx="77" cy="8" r=".4"/><circle cx="78" cy="8" r=".4"/><circle cx="80" cy="2" r=".4"/><circle cx="81" cy="2" r=".4"/><circle cx="82" cy="2" r=".4"/><circle cx="83" cy="2" r=".4"/><circle cx="84" cy="2" r=".4"/><circle cx="82" cy="3" r=".4"/><circle cx="82" cy="4" r=".4"/><circle cx="82" cy="5" r=".4"/><circle cx="82" cy="6" r=".4"/><circle cx="82" cy="7" r=".4"/><circle cx="82" cy="8" r=".4"/><circle cx="93" cy="2" r=".4"/><circle cx="94" cy="2" r=".4"/><circle cx="95" cy="2" r=".4"/><circle cx="92" cy="3" r=".4"/><circle cx="96" cy="3" r=".4"/><circle cx="92" cy="4" r=".4"/><circle cx="92" cy="5" r=".4"/><circle cx="94" cy="5" r=".4"/><circle cx="95" cy="5" r=".4"/><circle cx="96" cy="5" r=".4"/><circle cx="92" cy="6" r=".4"/><circle cx="96" cy="6" r=".4"/><circle cx="92" cy="7" r=".4"/><circle cx="96" cy="7" r=".4"/><circle cx="93" cy="8" r=".4"/><circle cx="94" cy="8" r=".4"/><circle cx="95" cy="8" r=".4"/><circle cx="96" cy="8" r=".4"/><circle cx="98" cy="2" r=".4"/><circle cx="102" cy="2" r=".4"/><circle cx="98" cy="3" r=".4"/><circle cx="102" cy="3" r=".4"/><circle cx="98" cy="4" r=".4"/><circle cx="102" cy="4" r=".4"/><circle cx="98" cy="5" r=".4"/><circle cx="102" cy="5" r=".4"/><circle cx="98" cy="6" r=".4"/><circle cx="102" cy="6" r=".4"/><circle cx="98" cy="7" r=".4"/><circle cx="102" cy="7" r=".4"/><circle cx="99" cy="8" r=".4"/><circle cx="100" cy="8" r=".4"/><circle cx="101" cy="8" r=".4"/><circle cx="104" cy="2" r=".4"/><circle cx="105" cy="2" r=".4"/><circle cx="106" cy="2" r=".4"/><circle cx="107" cy="2" r=".4"/><circle cx="108" cy="2" r=".4"/><circle cx="106" cy="3" r=".4"/><circle cx="106" cy="4" r=".4"/><circle cx="106" cy="5" r=".4"/><circle cx="106" cy="6" r=".4"/><circle cx="106" cy="7" r=".4"/><circle cx="104" cy="8" r=".4"/><circle cx="105" cy="8" r=".4"/><circle cx="106" cy="8" r=".4"/><circle cx="107" cy="8" r=".4"/><circle cx="108" cy="8" r=".4"/><circle cx="110" cy="2" r=".4"/><circle cx="111" cy="2" r=".4"/><circle cx="112" cy="2" r=".4"/><circle cx="110" cy="3" r=".4"/><circle cx="113" cy="3" r=".4"/><circle cx="110" cy="4" r=".4"/><circle cx="114" cy="4" r=".4"/><circle cx="110" cy="5" r=".4"/><circle cx="114" cy="5" r=".4"/><circle cx="110" cy="6" r=".4"/><circle cx="114" cy="6" r=".4"/><circle cx="110" cy="7" r=".4"/><circle cx="113" cy="7" r=".4"/><circle cx="110" cy="8" r=".4"/><circle cx="111" cy="8" r=".4"/><circle cx="112" cy="8" r=".4"/><circle cx="116" cy="2" r=".4"/><circle cx="117" cy="2" r=".4"/><circle cx="118" cy="2" r=".4"/><circle cx="119" cy="2" r=".4"/><circle cx="120" cy="2" r=".4"/><circle cx="116" cy="3" r=".4"/><circle cx="116" cy="4" r=".4"/><circle cx="116" cy="5" r=".4"/><circle cx="117" cy="5" r=".4"/><circle cx="118" cy="5" r=".4"/><circle cx="119" cy="5" r=".4"/><circle cx="116" cy="6" r=".4"/><circle cx="116" cy="7" r=".4"/><circle cx="116" cy="8" r=".4"/><circle cx="117" cy="8" r=".4"/><circle cx="118" cy="8" r=".4"/><circle cx="119" cy="8" r=".4"/><circle cx="120" cy="8" r=".4"/></g></g></svg>
